<?xml version="1.0" encoding="UTF-8"?>
<svg xmlns="http://www.w3.org/2000/svg" viewBox="0 0 841.89 595.28">
  <defs>
    <style>
      .cls-1 {
        fill: #2085b4;
      }

      .cls-2 {
        font-family: A1MinchoStd-Bold-83pv-RKSJ-H, 'A-OTF A1 Mincho Std';
        font-size: 11.34px;
        font-weight: 700;
      }

      .cls-2, .cls-3 {
        fill: #231815;
      }

      .cls-4 {
        letter-spacing: .25em;
      }

      .cls-3 {
        font-family: NotoSansJP-Regular-83pv-RKSJ-H, 'Noto Sans Japanese';
        font-size: 8.5px;
      }

      .cls-5 {
        fill: #61ac31;
      }

      .cls-5, .cls-6, .cls-7 {
        stroke: #fff;
        stroke-miterlimit: 10;
        stroke-width: 1.42px;
      }

      .cls-6 {
        fill: #af6f23;
      }

      .cls-7 {
        fill: #de338c;
      }
    </style>
  </defs>
  <g id="_レイヤー_2" data-name="レイヤー 2">
    <g id="river-main">
      <path class="cls-1" d="m727.46,577.34c-8.42-3.56-13.39-14.18-16.78-22.1-.18-.45-.25-.9-.23-1.36-.08-3-.06-7.2-1.85-9.5-.55-.39-1.25-.49-2.52-1.47-1.18-.88-2.01-2.5-2.19-3.78-.37-2.01.23-3.35.13-4.91,0,.01-.02-.07,0,.02.04.1.08.19.13.26.2.26.13.1-.16-.02-1.27-.6-2.98-.73-4.4-.82-.93-.01-1.77-.4-2.38-1.02-2.97-3.09-15.41-15.93-17.92-18.56-4.2-4.98-5.26-11.06-6.32-17.2-.19-1.38.53-2.69,1.71-3.28,3.09-1.66,6.31-3.63,8.97-5.93,3.46-2.51,2.67-6.11,5.65-9.51,2.47-2.52,4.63-2.67,7.03-4.45,3.73-2.65,6.63-7.21,6.78-11.69-.04-.25-.07-.33-.19-.52-.21-.38-.98-1.01-2.06-1.77l-.85-.63c-3.26-2.11-3.05-6.19-2.19-9.43.37-1.35,1.61-2.22,2.94-2.19,6.36-.2,16.8-.87,20.6-6,1.4-2.76.8-6.83-.13-10.01-1.04-3.73-2.68-7.56-4.52-10.99,0,0,1.32,1.21,1.32,1.21-4.69-2.07-10.41-4.7-15-6.5-.78-.31-1.59-.7-2.28-1.13-4.43-2.86-7.73-6.84-10.89-10.98-.41-.55-.57-1.2-.52-1.83.25-3.71.48-8.18-.88-11.64,0,0,.7.86.7.86-8.51-6.97-14.14-17.13-15.66-27.97-.94-6.17.08-12.85.01-18.77-.08-4.86-.87-9.17-4.17-12.33-1.53-1.44-3.26-2.77-4.64-4.58-3.35-4.26-3.62-9.99-5.71-14.61-1.71-2.87-5.2-5.44-8.13-7.24-.53-.32-.9-.8-1.09-1.33-1.19-3.17-2.97-6.65-6.41-7.66-1.67-.61-3.57-.91-5.57-1.13-3.73-.33-8.14-1.13-11.73-.05-9.02,1.64-18.34,2.4-27.44.77-.98-.18-2.04-.56-3.02-.79-2.23-.46-4.37-.06-6.82.47-3.05.68-6.51,1.67-9.86,1.48-1.87.03-4.62-1.17-6.17-1.52-2.18-.11-3.94,2.6-5.71,3.81-2.58,2-7.37,2.81-9.37-.54,0,0,3.9-1.21,3.9-1.21.31,4.36-.79,10.75-6.09,11.59-1.34.21-2.6-.04-3.67.15-.72.15-1.31.55-1.93,1.32-1.43,1.83-2.24,4.26-3.61,6.37-1.25,2.43-4.45,4.4-6.92,5.17-1.62.61-3.66,1.66-3.76,3.23-.04.21.14.73.26,1.66.53,4.29-4.25,5.24-5.79,8.37-.92,1.78-1.1,3.99-.43,5.8.39,1.03-.2,2.2-1.26,2.5-1.99.63-3.94,1.04-5.06,2.77-.8,1.61-.4,1.68.52,3.23.5.77.71,2.22.43,3.12-.83,2.43-1.96,4.08-1.93,6.63-.07,2.11.46,4.25,1.5,6.05.52.88.22,2.01-.66,2.52-5.63,2.08-10.5,6.36-13.13,11.83-1.13,2.11-1.48,4.39-2.41,6.68-1.31,3.36-4.28,4.41-7.62,3.86-1.47-.13-2.32,0-3.53.76-3.2,2.21-6.28,6.66-10.94,6.27-2.45-.11-4.57-.76-6.96-.45-2.95.26-5.99,1.24-9.27,1.79-9.66,1.73-19.64.59-29.15-1.07-6.34-1.13-12.56-2.37-18.88-3.57-1.68-.25-3.7-1.14-4.9-2.45-1.09-1.02-2.07-.99-3.55-1.11,0,0-9.57-.62-9.57-.62-3.8-.41-8.69-.02-12.33-1.69-2.68-1.25-4.83-4.23-4.11-7.31,0,0,1.26,1.67,1.26,1.67-2.58-.03-5.59.25-7.97,1.08,0,0,.32-.18.32-.18-.84.62-1.78.92-2.67,1.05-4.15.44-8.9-1.27-10.89-5.11-1.39-2.33-2.45-5.21-4.81-6.46-1.25-.67-2.61-.41-4.13-.88-.92-.25-1.94-.96-2.44-1.87-.94-1.54-.73-3.15-1.16-4.63-.6-2.04-2.35-2.58-4.15-4-7.09-5.67-1.96-15.23.43-21.98.85-2.71,1.18-5.55.14-7.97l1.17.66c-4.53.56-7.6-4.23-8.3-8.09-.8-3.49-.87-7.15-3.58-9.65-1.87-1.83-4.65-3.37-6.26-5.7-2.68-3.85-3.13-9.12-4.39-13.47,0,0-5.24-21.56-5.24-21.56-1.15-5.08-2.65-10.88-8.11-12.71-1.65-.74-3.55-1.44-5.02-2.95-1.49-1.46-2.23-3.45-2.63-5.33-.75-3.69-.37-7.39-1.35-10.96-2.19-8.71-9.55-15.96-18.41-17.72-10.96-2.19-21.97,2.09-33.02,1.34-3.7-.29-8.88-.95-9.52-5.39,0,0,.24.42.24.42-1.08-.82-2.43-.49-3.51.24-3.13,1.9-5.2,5.79-9.05,6.56-.86.11-1.77-.16-2.44-.66,0,0,.39.08.39.08-8.04,1.53-16.51.67-24.06-2.44,0,0,.6-.34.6-.34l-.56,3.63c-.03.38-.58.49-.77.19-1.63-2.3-3.97-4.02-6.55-5.17-12.65-5.73-31.91.73-39.25-14.12-1.72-3.6-3.74-9.05-8.68-7-2.01.71-3.85,2.3-6.13,2.25-2.4-.03-3.72-2.65-4.24-4.63-.46-1.36-.89-2.76-1.81-3.83-1.9-2.18-4.97-2.85-7.37-4.36-1.24-.75-2.38-1.82-2.93-3.21-1.17-2.7-.71-5.85-2.36-8.26-1.7-2.41-5.08-2.63-7.4-4.23-1.24-.79-2.04-2.2-2.13-3.67-.15-1.45.03-2.9-.23-4.32-.95-5.7-6.17-10.45-12-10.65,5.83.17,11.11,4.89,12.11,10.63.35,2.66-.4,6.23,2.35,7.87,2.35,1.58,5.72,1.77,7.49,4.24,1.72,2.5,1.27,5.68,2.43,8.28.54,1.32,1.62,2.33,2.84,3.06,2.44,1.5,5.5,2.15,7.48,4.38,2.26,2.41,1.75,7.93,5.81,8.27,2.22.02,3.9-1.52,5.95-2.26,5.18-2.21,7.6,3.43,9.32,7.19,1.19,2.61,3.08,4.81,5.52,6.33,12.19,7.79,30.75.22,40.5,12.7,0,0-.77.19-.77.19,0,0,.54-3.63.54-3.63.04-.24.26-.4.5-.37,7.45,3,15.77,3.84,23.64,2.27.14-.03.28,0,.39.08.53.37,1.13.54,1.74.46,3.58-.88,5.46-4.6,8.58-6.46,1.33-.93,3.37-1.33,4.76-.22.14.1.23.26.24.42.62,3.62,5.34,4.04,8.46,4.27,7.38.44,14.63-1.33,21.99-1.93,11.83-1.42,23.17,2.86,28.83,13.79,1.79,3.34,2.72,7.2,2.9,10.95.25,3.4.33,7.38,2.81,9.88,2.55,2.45,7.09,2.83,9.38,5.86,2.53,3.02,3.39,6.9,4.31,10.55,0,0,5.37,21.53,5.37,21.53,0,0,1.34,5.38,1.34,5.38.84,3.44,1.72,6.93,4.54,9.22,1.31,1.15,2.9,2.16,4.33,3.55,1.47,1.34,2.52,3.28,3.04,5.19,1.02,3.49.89,7.19,3.27,10.01,1.03,1.26,2.44,2.05,3.82,1.83.51-.08.99.21,1.17.66,2.62,6.03-1.33,12.39-3.05,17.89-1.13,3.88-1.54,8.47,1.9,11.02,3.19,2.11,5.16,3.35,5.48,7.6.21,1.2.36,2.07,1.52,2.43.51.15,1.2.2,2,.29,4.49.3,6.65,4.84,8.48,8.18,1.12,2.36,3.9,3.42,6.36,3.77,1.54.19,2.68-.08,3.64-.75,3.05-1.06,5.93-1.31,9.08-1.31.74.03,1.32.65,1.3,1.39-.31,1.14.08,2.36,1.07,3.38,2.03,2.02,5.22,1.97,8.08,2.17,0,0,4.79.28,4.79.28,2.35.23,10.12.38,12.23.89,1.77.28,2.8,1.91,4.24,2.65.55.25,1.22.42,1.96.57,6.25,1.15,12.57,2.37,18.82,3.44,6.26,1.05,12.54,1.85,18.79,1.77,3.12-.04,6.22-.31,9.26-.87,3.02-.51,6.1-1.54,9.54-1.89,2.87-.55,6.56.89,9.14.14,1.12-.37,2.23-1.25,3.35-2.29,1.14-1.03,2.3-2.26,3.89-3.28,1.48-1.07,3.9-1.56,5.63-1.31,1.31.07,2.35.34,3.26-.42,1.62-1.83,1.91-5.86,3.31-8.21,2.97-6.18,8.31-11.14,14.77-13.59,0,0-.94,2.65-.94,2.65-2.87-4.72-2.52-10.65-.07-15.41.03-.29.06-.13-.07-.42-2.26-2.71-1.65-6.58,1.07-8.86,1.59-1.39,3.83-2.11,5.66-2.65,0,0-1.25,2.52-1.25,2.52-1.63-4.4-.18-9.57,3.45-12.46,1.08-.84,2.05-1.55,2.32-2.05.13-.25.15-.29.13-.56-.01-.32-.28-1.02-.29-2.08,0-2.77,2.07-4.89,4.31-6.08,1.6-.87,3.66-1.42,4.95-2.3,2.51-1.68,3.59-6.25,5.8-8.96.99-1.3,2.58-2.45,4.25-2.77,1.42-.37,2.73-.04,3.88-.21,1.69-.32,2.17-2.22,2.44-3.91.15-1.07.17-2.23.11-3.38-.16-2.02,2.63-3.04,3.79-1.36,0,0,.11.15.11.15.08.11.11.14.22.19.91.29,2.19-.27,3.04-.87.14-.11.27-.21.46-.38l1.11-1.02c3.15-3.16,6.23-4.24,10.59-2.27,5.91,1.81,11.73-2.26,17.97-1.74,1.2.05,2.41.35,3.56.69,2.82.79,5.74.95,8.72,1.04,7.23.18,14.37-.83,21.47-2.24,3.34-.4,6.63.32,9.89.5,8.35.67,13.16,3.67,16.09,11.95,0,0-1.09-1.33-1.09-1.33,1.95,1.16,3.67,2.37,5.38,3.79,1.9,1.58,3.92,3.59,5.09,6.16,2.23,5.08,2.24,11.25,6.74,14.92,14.1,10.58,4.53,27.59,9.47,41.73,2.25,7.35,6.68,14.05,12.62,18.85.3.24.54.54.7.86,2.16,4.76,1.76,9.6,1.56,14.62,0,0-.52-1.88-.52-1.88,1.53,2.03,3.29,4.11,5.09,5.92,1.81,1.8,3.78,3.5,5.64,4.18,2.64,1.03,5.17,2.11,7.71,3.2l7.59,3.32c.58.26,1.04.69,1.32,1.21,2.18,3.99,3.86,7.9,5.13,12.25,1.22,4.74,2.23,9.74-.39,14.58-4.97,7.77-17.41,8.76-25.74,9.08,0,0,2.94-2.19,2.94-2.19-.22.8-.36,2.02-.26,2.54.03.29.14.26-.14-.05-.07-.06.04.03.06.05l.13.11s.3.23.3.23c1.52,1.18,2.73,1.69,4.32,3.88,2.77,4.48.29,10.17-2.04,14.2-1.95,3.15-4.7,5.83-7.92,7.7-1.25.64-3.49,1.71-4.15,2.4-1.18,1.63-1.45,4.29-2.95,6.54-3.47,4.82-8.38,7.48-13.36,10.36,0,0,1.71-3.28,1.71-3.28.79,4.47,1.76,9.62,4.41,13.2.09.12.18.21.27.31,0,0,.43.44.43.44,0,0,.92.94.92.94l1.85,1.89s14.78,15.11,14.78,15.11l-2.38-1.02c4.36.28,9.82.84,11.02,6.01.11.59.15,1.16.14,1.65,0,.98-.12,1.74-.18,2.34-.07.59-.07,1.02-.04,1.04.04.03-.14-.33-.26-.39-.07-.03.36.19,1.17.58,5.54,3.05,5.72,10.48,5.86,15.95,0,0-.23-1.36-.23-1.36,2.23,5.31,5.09,10.92,8.99,15.16,1.24,1.3,2.62,2.36,3.79,2.79l3.33,1.2s-2.5,6.73-2.5,6.73l-3.3-1.28h0Z"/>
    </g>
    <path class="cls-1" d="m263.75,225.85c-3.36-.7-7.11.66-9.48,3.21-1.4,1.38-1.82,3.07-2.72,4.8-.57,1.12-2.11,1.66-3.23,1.6-.86.02-1.48.2-2.1.71-1.89,1.67-2.65,5.2-4.88,7.02-2.39,2.07-5.64,1.56-8.36,2.66-1.55.66-2.91,2.08-2.56,3.45l-.5.93c-6.91,2.42-14.17,4.16-21.58,4.16-5.41,0-10.93-.94-15.81,1.64-1.54.81-2.89,1.96-3.77,3.43l-.98-.21c-.17-1.63-1.67-2.91-3.31-3.38-5.7-1.45-9.95,4.6-15.54,4.85-3.99.26-7.03-2.72-10.56-3.82-4.3-1.43-10.09,1.09-13.46-2.84-.6-.77-.98-1.65-1.63-2.21-1.47-1.18-3.51.23-5.09.64-3.43,1.2-7.55,2.73-10.92.55-.78-.48-1.6-1.05-2.48-1.05-.43,0-.8.33-.91.75-.13.42-.07.91-.2,1.38-.38,1.94-2.28,3.1-4.04,3.61-3.61,1.1-7.62-.55-11.03,1.38,3.36-1.96,7.43-.38,10.99-1.51,1.7-.51,3.54-1.66,3.89-3.52.12-.44.05-.91.19-1.4.12-.48.58-.92,1.1-.92,1.02,0,1.84.59,2.63,1.06,4.83,2.94,9.9-1.23,14.75-1.87.51.02,1.03.22,1.42.55.78.67,1.16,1.57,1.73,2.26,3.39,3.69,8.94,1.07,13.26,2.51,6.13,2.24,8.71,5.86,15.42,1.9,2.43-1.33,4.93-3.06,7.8-3.45,2.94-.47,6.61,1.18,7.06,4.41,0,0-.98-.21-.98-.21,4.28-6.93,13.55-5.93,20.49-5.85,7.19-.08,14.28-1.86,21.05-4.33l-.5.93c-.59-2.44,1.43-4.43,3.41-5.32,2.5-1.19,5.75-.67,7.9-2.49,2.51-2.24,2.82-6.7,6.35-7.99.93-.37,2-.19,2.77-.46,1-.57,1.1-2.13,1.7-3.13,2.4-4.67,7.87-7.51,13.14-6.52,1.32.29,1.05,2.32-.41,2.09h0Z"/>
    <path class="cls-1" d="m321.23,265.83c-3.29-2.97-3.78-8.21-1.16-11.74,1.31-1.69,2.9-2.67,3.95-3.89.82-.94,1.14-1.66.91-2.82-1.24-5.98,6.69-3.2,3.91-16.35-1.16-5.2-3.25-11.53.31-16.3.59-.76,1.24-1.37,1.54-2.09.3-.71.25-1.53-.03-2.33-.55-1.61-1.75-3.13-2.23-4.98-1-3.67,0-7.57,1.95-10.65,1.98-3.12,4.83-5.51,7.79-7.6-2.89,2.19-5.65,4.67-7.49,7.78-1.82,3.07-2.62,6.88-1.58,10.26.48,1.69,1.68,3.07,2.38,4.88.36.89.49,2,.1,2.99-.39.99-1.1,1.67-1.59,2.36-3.13,4.65-.82,10.35.39,15.31,1.15,4.5,1.49,10.27-2.41,13.64-.66.62-1.08,1.17-1.08,1.59,1.33,5.21-2.31,6.42-4.84,9.64-1.74,2.4-1.22,6.33,1.01,8.12,1.47,1.22-.4,3.44-1.85,2.15h0Z"/>
    <path class="cls-1" d="m350,361.94c-1.79-2.29-5.43-2.98-8.34-3.65-3.54-.83-7.62-2.35-9.1-6.04-.51-1.3-.54-2.49-.86-3.3-.35-.81-.59-.99-1.68-1.07-3.78.06-7.53-2.43-8.79-6.04-.39-1.19-.62-2.18-1.18-2.46-.51-.37-1.53-.14-2.62.18-2.73,1.02-4.99-.15-6.84-2.05-3.93-3.87-9.56-5.82-15.06-5.13-2.19.26-4.47.91-6.87.62-5.11-.54-6.54-6.32-9.26-9.69-4.85-6.01-12.89-.8-19.22-2.32,6.39,1.32,14.56-4.11,19.63,1.98,2.25,2.57,3.28,6,6.01,8.05,2.86,2.07,6.28.8,9.57.31,4.62-.7,9.49.36,13.44,2.92,2.69,1.53,4.7,5.24,8.14,3.7,1.22-.36,2.66-.85,3.97-.09,1.31.71,1.61,2.21,2.04,3.35,1.12,2.87,4.07,4.71,7.15,4.57.6.02,1.39.08,2.15.54.75.44,1.23,1.19,1.48,1.83.51,1.3.56,2.45.94,3.25.69,1.68,2.47,2.83,4.42,3.55,4.39,1.55,9.8,1.31,13.08,5.22,1.19,1.45-.97,3.28-2.2,1.79h0Z"/>
    <path class="cls-1" d="m524.29,355.68c-.4,3.27.57,6.51,1.74,9.6,5.79,13.28,6.53,19.09-4.74,29.6-2.71,2.39-5.58,4.58-8.91,6.21-1.66.81-3.32,1.37-4.8,2.13-3.14,1.62-5.51,4.86-9.22,5.45-3.34.82-6.84.55-9.48,2.85-1.18.99-1.87,2.34-1.61,3.63l-1.53,1.12c-6.14-3.02-12.11,2.32-17.72,4.52-2.07.9-4.62,1.28-6.81,1.24-1.07.03-2.11.12-2.85.5-.75.39-1.03.97-1.29,2.1-.43,2.83-3.27,3.77-5.59,4.34-3.99,1.18-7.39,4.33-8.88,8.23l-.47.47c-5.98,2.22-12.53,2.83-18.8,1.72-2.09-.35-4.1-1.02-5.86-.59-1.77.37-2.74,2.24-4.11,3.91-.68.84-1.66,1.67-2.85,1.97-1.17.29-2.26.16-3.2.25-1.89.19-3.62,1.23-5.1,2.6-1.51,1.35-2.85,2.93-4.41,4.38-6.22,6.12-11.17,2.38-17.52-.85-1.84-.87-3.8-1.29-5.83-1.26-7.91.1-17.12,5.88-24.37.19,0,0,.51-.03.51-.03-5.37,5.32-13.57,4.24-20.45,4.34-3.51.06-7.09.28-10.35,1.59-3.24,1.32-6.13,3.51-9.53,4.68-6.7,2.46-14.31,2.29-20.84-.54-5.96-2.73-13.74-7.9-19.62-2.4,5.85-5.56,13.75-.45,19.7,2.23,6.51,2.76,14.06,2.85,20.64.37,3.33-1.18,6.17-3.38,9.48-4.76,3.34-1.38,6.98-1.62,10.52-1.72,6.76-.19,14.7.89,19.93-4.3,0,0,.51-.03.51-.03,9.16,6.72,20.38-4.16,30.14.71,3.65,1.55,7.18,4.52,11.28,3.85,6.26-1.38,8.51-9.59,15.21-10.34,2.13-.09,3.82.05,5.14-1.8,2.22-3.17,3.93-5.26,8.17-4.46,6.98,1.59,14.35,1.39,21.06-1.24,0,0-.47.47-.47.47,1.65-4.4,5.38-7.93,9.89-9.32,1.5-.5,2.98-.68,3.88-1.87.55-.86.5-2.01,1.1-3.05.36-.63.93-1.16,1.55-1.48,2.29-1.12,4.57-.52,6.8-.98,7.44-1.6,14.36-9.59,22.45-5.48,0,0-1.53,1.12-1.53,1.12-.23-1.08-.06-2.25.39-3.22,2.14-4.68,7.93-4.99,12.22-5.84,3.52-.64,5.56-3.85,8.68-5.35,1.65-.86,3.34-1.45,4.83-2.19,5.83-3.09,11.37-7.99,14.68-13.71,4.63-8.14-2.6-16.13-4.22-24.21-.38-1.84-.54-3.77-.33-5.72.08-.78.78-1.34,1.56-1.26.8.08,1.37.83,1.25,1.62h0Z"/>
    <path class="cls-1" d="m526.66,390.04c-5.75,3.17-5.22,11.38-5.86,17.2-.96,9.41-4.85,11.87-12.92,15.35-9.1,4.39-17.8,9.65-25.91,15.68-3.63,2.95-8.68,5.73-9.58,10.67-.25,1.49.38,3.17.05,5.11-.15,1.02-1.03,2.04-2.08,2.22-1.02.22-1.86,0-2.57.19-1.51.19-2.71,1.32-3.65,2.64-3.46,5.27-3.98,8.7-11.04,9.84-1.58.47-3.09,1.19-4.43,2.17-2.7,1.92-4.76,4.76-5.7,7.95-.49,1.61-.7,3.52-2.11,4.68-.72.58-1.57.8-2.36,1.1-7.03,2.48-14.71,5.79-22.22,3.5,7.54,2.15,15.1-1.28,22.08-3.88,3.12-.85,3.44-2.74,4.1-5.55,1.37-5.02,5.43-9.21,10.41-10.74,1.66-.52,3.37-.7,4.67-1.61,1.33-.86,2.3-2.23,3.15-3.66,1.73-2.81,3.18-6.93,6.92-7.59.95-.22,1.84-.03,2.48-.22,2.33-.77.55-4.42.99-6.33.46-3.69,3.28-6.35,5.94-8.59,9.22-7.59,19.27-14.13,29.93-19.51,3.02-1.6,6.32-2.73,8.32-4.98,3.18-3.5,3.12-9.08,3.38-13.74.3-5.34,1.54-11.64,6.72-14.44,1.64-.83,3.02,1.58,1.3,2.52h0Z"/>
    <path class="cls-1" d="m470.51,396.82c-3.64,2.3-8.27.95-11.21-1.64-2.45-2.01-4.82-5.76-6.71-8.27-2.02-2.78-4.04-5.51-6.61-7.51-2.71-2.23-6.43-2.98-8.67-6.13-2.05-3.11-.59-6.97-2.34-10.2-1.95-4.61-5.94-8.77-7.07-13.94-.44-1.82-.34-3.62-.51-5.25-.64-7.71-9.8-7.93-14.93-11.87-3.07-2.03-4.29-5.71-5.48-8.97,0,0-3.66-9.7-3.66-9.7-1.07-2.74-2.46-6.99-3.95-9.5-1.71-2.94-4.6-4.99-6.85-7.67-6.7-7.23,3.97-13.06-5.36-18.35-2.84-1.72-6.76-2.88-7.77-6.42,2.36,6.81,14.5,4.92,11.78,14.97-2.94,8.77,4.87,10.9,8.81,17.1,1.58,2.56,3.01,6.74,4.17,9.55,1.4,3.37,4.3,11.21,5.81,14.36,2.47,4.76,7.9,5.75,12.48,8.02,9.77,4.64,4.4,10.64,8.99,17.91,1.64,2.93,3.84,5.67,5.33,9,.75,1.64,1.23,3.51,1.33,5.35-.45,6.52,5.12,6.7,9.28,9.93,2.94,2.23,5.12,5.11,7.2,7.87,3.1,3.83,5.5,8.63,10.42,9.67,1.44.27,2.88.07,3.95-.65.65-.44,1.53-.27,1.97.38.44.66.26,1.56-.41,1.99h0Z"/>
    <path class="cls-1" d="m560.68,298.97c-3.51,3.86-9.41,3.03-13.87,2,0,0-.86-.66-.86-.66-2.7-5.27-8.11-8.63-12.67-12.32-4.51-4.06-10.65-5.17-15.44-.97,0,0-1,.12-1,.12-3.44-2.06-4.38-6.1-6.85-8.78-1.16-1.26-2.68-1.93-4.4-1.94-8.99.84-18.09,2.72-27.08,3.84,0,0-.39-.44-.39-.44.62-2.49-2.17-4.21-4.16-5.15-1.12-.58-2.31-1.2-3.18-2.22-.89-1-1.1-2.4-1.16-3.68.13-5.71-4.01-4.65-8.12-4.43-1.24.06-2.74-.31-3.09-1.68,1.8,4.62,11.37-3.13,11.56,6.08.09,1.26.3,2.52,1.14,3.42,2.34,2.52,8.54,3.15,7.68,7.84,0,0-.39-.44-.39-.44,7.23-1.21,14.45-2.44,21.65-3.72,7.63-1.69,10.33-.79,14.22,6.12.95,1.52,2.01,2.91,3.41,3.7l-1,.12c3.62-3.45,9.41-4.32,13.87-2.06,4.16,2.34,7.58,5.27,11.38,8.17,2.41,1.99,4.72,4.33,6.28,7.27l-.86-.66c3.71.72,8.53,1.55,11.22-1.41,1.24-1.43,3.41.44,2.12,1.88h0Z"/>
    <path class="cls-1" d="m674.72,359.98c.63-3.31,1.85-10.13,2.51-13.3,1.25-6.26,4.23-7.54,9.38-10.05,1.14-.65,2.06-1.51,2.56-2.7,1.57-4.19-.66-8.42.12-13.08.35-3.32,3.31-5.55,5.51-7.56,1.03-.98,1.8-2.07,1.72-3.23-.22-2.82-3.78-4.46-4.71-7.18-.72-1.79.56-3.88,2.19-4.52,1.48-.71,2.94-.98,3.96-1.81,3.27-2.55,3.31-8.36.15-10.98-2.31-1.84-5.64-1.62-8.27-3.05-3.32-1.62-2.9-5.43-2.37-8.41.52-4.35.37-9.09-2.15-12.82-1.62-2.59-4.69-3.64-6.65-5.92-2.93-3.5-2.73-9.21.52-12.42-3.15,3.23-3.27,8.87-.32,12.25.96,1.12,2.26,1.9,3.5,2.74,5.48,3.32,6.5,10.39,5.81,16.26-.39,2.74-.89,6.18,2.08,7.55,2.66,1.34,6,1.04,8.52,3,3.83,3.11,3.83,9.73,0,12.86-1.34,1.09-2.94,1.39-4.13,2.03-3.22,1.65-.64,4.19,1.19,6,1.83,1.7,3.24,4.59,1.74,6.97-1.17,2.04-3.3,3.4-4.72,5.04-4.19,4.83.74,11.48-1.65,17.16-.31.8-.83,1.58-1.41,2.22-2.53,2.76-6.91,3.07-8.74,6.34-1.28,2.25-1.53,5.29-2.07,8.24l-1.47,8.87c-.33,1.8-3.09,1.42-2.79-.49h0Z"/>
    <path class="cls-1" d="m697.4,473.07c2.55.25,4.68-1.73,6.47-3.52,2.23-2.36,4.48-4.64,7.8-5.46,1.74-.47,3.9-.03,5.3,1.12,1.37,1.11,2.19,2.24,3.16,2.59,5.08,1.41,7.77-4.72,11.26-7.38.51-.43,1.37-1.05,1.93-1.38,5-3.22,11.24-4.21,15.73-7.88,7.34-5.87-1.51-15.87,3.69-22.79,1.21-1.64,3.24-3.16,3.61-5.06.57-2.7-1.36-5.25-2.46-7.74-1.49-2.75-1.75-6.5-.17-9.31,2.06-4.04,5.85-6.98,8.2-10.63,3.85-5.93,2.74-14.62-2.31-19.6-1.56-1.67-3.97-2.53-4.91-4.78-1.03-2.35.17-5.02,1.6-6.82,2.51-3.41,7.48-5.38,8.07-9.9.14-7.06-13.66-6.58-4.26-18.86,0,0,10.67-14.28,10.67-14.28.92-1.18,1.94-2.34,3.25-3.18,4.91-3.16,12.83-.03,15.8-6.22.63-1.24.76-2.84-.24-3.92-.92-1.08-2.8-1.63-2.9-3.35-.19-4.35,5.49-4.88,6.99-8.22.85-2.1-.48-4.38-2.12-5.71-2.33-1.87-5.45-2.26-8.07-3.61-4.02-2-6.48-6.69-5.91-11.13-.35,2.96.64,6,2.52,8.28,2.82,3.8,8.03,3.6,11.6,6.29,1.72,1.35,3.14,3.77,2.25,5.98-1.37,3.37-6.99,3.92-6.86,8.07.15,1.63,1.91,1.97,2.84,3.1.53.58.86,1.37.87,2.16,0,2.36-1.69,4.39-3.61,5.59-3.9,2.24-9,.76-12.8,3.24-1.2.78-2.16,1.89-3.05,3.05l-10.51,14.37c-8.88,11.78,4.59,10.04,4.65,18.41-.49,4.92-5.53,7.05-8.19,10.58-1.68,2.08-2.6,5.19-.21,7.07,8.14,4.93,11.31,16.02,6.19,24.24-2.87,4.83-8.9,8.52-8.87,14.41.21,4.51,4.8,7.99,3.81,12.83-.46,2.41-2.53,3.99-3.88,5.82-4.5,6.89,4.71,15.73-3.82,23.29-4.6,3.94-11,5.02-15.9,8.23,0,0-.87.58-.87.58l-.8.65c-2.91,2.4-4.69,6.15-8.46,7.66-1.55.66-3.48.95-5.3.24-1.6-.59-2.62-2.01-3.79-2.9-3.57-2.37-7.13,1.67-9.55,4.19-2.24,2.32-5.13,4.81-8.76,4.42-1.83-.29-1.56-2.97.33-2.82h0Z"/>
  </g>
  <g id="_レイヤー_3" data-name="レイヤー 3">
    <circle id="assemblage" class="cls-7" cx="384.02" cy="382.85" r="5.67"/>
    <circle id="aizu" class="cls-5" cx="252.18" cy="320.15" r="3.54"/>
    <circle id="syneco" class="cls-5" cx="265.86" cy="462.17" r="3.54"/>
    <circle id="minamata" class="cls-5" cx="378.84" cy="266.2" r="3.54"/>
    <circle id="takeno" class="cls-5" cx="456.54" cy="257.93" r="3.54"/>
    <circle id="watershed" class="cls-6" cx="777.64" cy="269.74" r="3.54"/>
    <circle id="designothernames" class="cls-6" cx="683.19" cy="239.38" r="3.54"/>
    <circle id="gardener" class="cls-6" cx="102.66" cy="261.82" r="3.54"/>
    <circle id="posthuman" class="cls-6" cx="342.8" cy="184.28" r="3.54"/>
    <circle id="movinggarden" class="cls-6" cx="410.62" cy="485.53" r="3.54"/>
    <circle id="toolview" class="cls-6" cx="348.24" cy="104.18" r="3.54"/>
    <circle id="nagomi" class="cls-7" cx="96.99" cy="152.78" r="5.67"/>
    <circle id="drift" class="cls-7" cx="601.94" cy="293.35" r="5.67"/>
    <circle id="weaving" class="cls-7" cx="684.23" cy="380.96" r="5.67"/>
    <text class="cls-3" transform="translate(60.85 138.23)"><tspan x="0" y="0">源流：なごみの灯り</tspan></text>
    <text class="cls-3" transform="translate(66.52 277.22)"><tspan x="0" y="0">「庭師」としての</tspan><tspan x="14.88" y="11.34">デザイナー</tspan></text>
    <text class="cls-3" transform="translate(305.72 163.8)"><tspan x="0" y="0">ポストヒューマニズム</tspan><tspan x="25.51" y="11.34">デザイン</tspan></text>
    <text class="cls-3" transform="translate(207.04 337.09)"><tspan x="0" y="0">フィールドワーク</tspan><tspan class="cls-4" x="20.43" y="11.34">@</tspan><tspan x="30.6" y="11.34">会津</tspan></text>
    <g>
      <circle id="assemblage-2" data-name="assemblage" class="cls-7" cx="36.11" cy="519.5" r="5.67"/>
      <circle id="aizu-2" data-name="aizu" class="cls-5" cx="36.11" cy="564.09" r="3.54"/>
      <text class="cls-3" transform="translate(48.12 566.86)"><tspan x="0" y="0">Fieldwork / Practice</tspan></text>
      <circle id="aizu-3" data-name="aizu" class="cls-6" cx="36.11" cy="542.87" r="3.54"/>
      <text class="cls-3" transform="translate(48.12 545.64)"><tspan x="0" y="0">Theory / Concept / Perspective</tspan></text>
      <text class="cls-3" transform="translate(48.12 522.27)"><tspan x="0" y="0">Insight / Argurement</tspan></text>
    </g>
    <text class="cls-2" transform="translate(24.78 35.03)"><tspan x="0" y="0">「土着的なコ・デザイン」に関する研究流域</tspan></text>
    <text class="cls-3" transform="translate(345.38 243.33)"><tspan x="0" y="0">フィールドワーク</tspan><tspan class="cls-4" x="20.43" y="11.34">@</tspan><tspan x="30.6" y="11.34">水俣</tspan></text>
    <text class="cls-3" transform="translate(433.02 236.07)"><tspan x="0" y="0">フィールドワーク</tspan><tspan class="cls-4" x="20.43" y="11.34">@</tspan><tspan x="30.6" y="11.34">竹野</tspan></text>
    <text class="cls-3" transform="translate(663.59 218.2)"><tspan x="0" y="0">Design with</tspan><tspan x="-2.9" y="11.34">Other Names</tspan></text>
    <text class="cls-3" transform="translate(354.04 402.41)"><tspan x="0" y="0">人とモノの</tspan><tspan x="-17.01" y="11.34">アッサンブラージュ</tspan></text>
    <text class="cls-3" transform="translate(246.95 479.12)"><tspan x="0" y="0">協生農法</tspan><tspan x="-12.76" y="11.34">シネコポータル</tspan></text>
    <text class="cls-3" transform="translate(373.84 501.1)"><tspan x="0" y="0">動いている庭</tspan></text>
    <text class="cls-3" transform="translate(326.98 83.86)"><tspan x="0" y="0">デザインの</tspan><tspan x="8.5" y="11.34">道具観</tspan></text>
    <text class="cls-3" transform="translate(561.55 266.86)"><tspan x="0" y="0">「ドリフト」という</tspan><tspan x="-2.13" y="11.34">デザインプラクティス</tspan></text>
    <text class="cls-3" transform="translate(613.84 394.11)"><tspan x="0" y="0">建築家と庭師の</tspan><tspan x="-11.11" y="11.34">Ontological Weaving</tspan></text>
    <text class="cls-3" transform="translate(757.09 261)"><tspan x="0" y="0">流域思考</tspan></text>
    <path class="cls-1" d="m581.41,294.41c-12.72-.68-38.05-14.66-31.22-30.15,2.15-3.88,6.59-6.03,9.26-9.13,2.01-2.18,1.61-4.53.71-7.21,0,0,0-.5,0-.5.57-2.02,1.18-4,1.91-5.97.26-.84.89-2.07,1.25-2.9,2.12-4.58,2.39-9.71,1.94-14.74-.36-4.05-1.14-8.11-1.93-12.14-.79-3.87-1.93-7.92-4.76-10.76,1.01.68-6.59-4.24-6.21-3.99,0,0,.07.04.07.04l-7.72-3.9c-1.41-.71-4.45-2.26-5.79-2.92-3.72-1.87-5.86-2.16-9.5.12-6.51,4.48-11.73,3.36-14.26-4.44-1.94-7.97,0-13.76-9.34-17.28-1.98-.86-5.94-2.6-7.92-3.46-2.78-1.01-6.42-3.43-4.55-6.89,1.33-2.51,4.43-3.99,4.21-6.97-.32-2.69-3.08-4.51-5.53-5.28-7.29-1.79-14.39,3.36-20.49-4.04-1.94-2.23-3.36-4.79-4.7-7.35-1.12-2.04-2.63-5.72-4.18-7.4-.42-.45-1.07-.61-1.75-.73-2.1-.31-4.25-.12-6.37.1-4.97.6-9.92,1.69-14.62,3.41-2.53,1.05-6.76,1.83-7.96-1.49-.69-2.09.27-4.41-.61-6.4-1.76-4.01-6.6-5.31-10.59-6-2.02-.24-4.42-.74-5.94.89-.95,1.06-1.32,2.64-2.57,3.49-9.19,6.45-21.05,4.28-31.45,6.68-4.26.85-8.49,1.62-12.77,2.35-3.9-.62-9.08-3.5-9.54-7.69,0,0-.27-2.14-.27-2.14-.09-.53-.14-1.07-.33-1.57-1.12-1.08-2.88-1.49-4.33-2.04-2.05-.57-4.44-.74-5.73-2.67-.41-.59-.55-1.38-.3-2.06-.5,1.49.68,2.8,1.92,3.46,1.26.76,2.75.77,4.12,1.22,1.36.51,3.36,1,4.38,2.05.25.85.53,2.8.63,3.73.42,4.12,5.74,6.99,9.45,7.54,4.23-.75,8.51-1.56,12.72-2.42,9.13-2.39,26.45-.35,32.56-8.37,1.51-3.5,4.21-3.42,7.51-2.91,2.86.43,5.75,1.2,8.2,2.88,1.84,1.23,3.26,3.3,3.29,5.58.05,1.95-.56,4.51,1.4,5.71,2.6,1.36,5.48-.34,8.05-1.13,1.38-.45,2.77-.85,4.17-1.2,3.83-.86,14.15-3.36,17.25-.81,1.76,1.92,3.11,5.32,4.36,7.57,2.56,4.74,5.74,10.64,11.76,10.94,5.69.34,12.04-2.39,16.95,2.03,2.7,2.16,3.1,5.69.66,8.27-4.11,4.09-4.28,6.38,1.41,8.66,1.97.85,5.97,2.56,7.94,3.42,4.48,1.71,7.84,4.54,8.65,9.5,1.07,5.17.61,12.2,6.31,14.43,5.13,1.28,8.83-5.26,14.09-4.09,3.41.79,6.87,2.97,10.02,4.44,0,0,7.74,3.86,7.74,3.86,0,0,.07.04.07.04,0,0,6.36,4.05,6.36,4.05,3.21,3.04,4.48,7.47,5.37,11.62,1.59,8.15,3.48,16.66,1.13,24.92-.52,2-1.61,3.87-2.3,5.81-.69,1.9-1.29,3.87-1.83,5.83,0,0,0-.5,0-.5.41,1.5.93,2.87.87,4.5-.67,6.37-8.22,8.27-10.89,13.28-4.92,12.05,12.01,22.16,21.56,25.41,2.65.89,5.38,1.57,8.1,1.7.59.03,1.04.53,1.01,1.11-.03.59-.53,1.04-1.12,1.01h0Z"/>
  </g>
</svg>