<?xml version="1.0" encoding="UTF-8"?>
<svg xmlns="http://www.w3.org/2000/svg" viewBox="0 0 798.8 545.78">
  <defs>
    <style>
      .cls-1 {
        fill: #2085b4;
      }

      .cls-2 {
        letter-spacing: .25em;
      }

      .cls-3 {
        fill: #231815;
        font-family: NotoSansJP-Regular-83pv-RKSJ-H, 'Noto Sans Japanese';
        font-size: 8.5px;
      }

      .cls-4 {
        fill: #61ac31;
      }

      .cls-4, .cls-5, .cls-6 {
        stroke: #fff;
        stroke-miterlimit: 10;
        stroke-width: 1.42px;
      }

      .cls-5 {
        fill: #af6f23;
      }

      .cls-6 {
        fill: #de338c;
      }
    </style>
  </defs>
  <g id="_レイヤー_2" data-name="レイヤー 2">
    <g id="river-main">
      <path class="cls-1" d="m697.38,511.79c-8.42-3.56-13.39-14.18-16.78-22.1,0,0-.23-1.36-.23-1.36-.08-3-.06-7.2-1.85-9.5-.55-.39-1.25-.49-2.52-1.47-1.18-.88-2.01-2.5-2.19-3.78-.37-2,.23-3.35.13-4.91,0,.01-.02-.07,0,.02.04.1.08.19.13.26.2.26.13.1-.16-.02-1.27-.6-2.98-.73-4.4-.82,0,0-2.38-1.02-2.38-1.02-2.97-3.09-15.41-15.93-17.92-18.56-4.2-4.98-5.26-11.06-6.32-17.2,0,0,1.71-3.28,1.71-3.28,3.87-2.13,8.3-4.66,11.02-8.12,1.29-2.09,1.4-4.97,3.61-7.31,2.47-2.52,4.63-2.67,7.03-4.45,3.51-2.46,6.06-6.53,6.74-10.63.08-.71.15-1.08-.15-1.58-.21-.38-.98-1.01-2.06-1.77,0,0-.85-.63-.85-.63-3.26-2.11-3.05-6.19-2.19-9.43,0,0,2.94-2.19,2.94-2.19,5.7-.11,11.92-.72,17.08-3.13,3.33-1.65,4.54-3.6,4.35-7.34-.38-5.7-2.83-11.45-5.48-16.52,0,0,1.32,1.21,1.32,1.21-4.9-2.17-10.74-4.83-15.55-6.74-5.34-2.59-9.05-7.31-12.61-11.88,0,0-.52-1.88-.52-1.88.24-3.69.47-8.15-.88-11.59,0,0,.7.86.7.86-6.81-5.58-11.76-13.2-14.27-21.57-2.7-8.05-1.48-17.08-1.37-25.17-.08-4.86-.87-9.17-4.18-12.33-1.53-1.44-3.26-2.77-4.64-4.58-3.35-4.26-3.62-9.99-5.71-14.61-1.71-2.87-5.2-5.44-8.13-7.24,0,0-1.09-1.33-1.09-1.33-.58-1.65-1.49-3.48-2.52-4.85-2.23-3.07-5.84-3.46-9.47-3.94-2.25-.13-6.79-.87-8.86-.57-7.26,1.45-14.67,2.34-22.11,2.14-3.27-.11-6.69-.34-9.9-1.28-.85-.27-1.68-.48-2.57-.53-5.03-.23-10.16,2.46-15.44,2.12-1.87.03-4.62-1.17-6.17-1.52-2.18-.11-3.94,2.6-5.71,3.81-2.58,2-7.37,2.81-9.37-.54,0,0,3.9-1.21,3.9-1.21.31,4.36-.79,10.75-6.09,11.59-1.34.21-2.6-.04-3.67.15-1.86.44-2.71,2.44-3.65,4.19-1.25,2.45-2.49,5.16-5.02,6.86-2.43,1.85-6.9,1.95-7.55,5.04-.04.21.14.73.26,1.66.53,4.29-4.25,5.24-5.79,8.37-.92,1.78-1.1,3.97-.43,5.79,0,0-1.25,2.52-1.25,2.52-1.16.34-2.24.67-3.12,1.12-1.27.52-2.76,2.21-2.24,3.52.05.2.38.59.83,1.37.5.77.71,2.22.43,3.12-.42,1.56-1.03,2.18-1.41,3.52-.95,3-.59,6.45.98,9.16,0,0-.94,2.65-.94,2.65-5.53,2.04-10.26,6.36-12.85,11.7-2.51,5.24-2.02,11.71-10.03,10.54-1.47-.13-2.32,0-3.53.76-3.2,2.21-6.28,6.66-10.94,6.27-2.45-.11-4.57-.76-6.96-.45-2.95.26-5.99,1.24-9.27,1.79-9.66,1.73-19.64.59-29.15-1.07-6.34-1.13-12.56-2.37-18.88-3.57-1.68-.25-3.7-1.14-4.9-2.45-1.09-1.02-2.07-.99-3.55-1.11,0,0-9.57-.62-9.57-.62-3.8-.41-8.69-.02-12.33-1.69-2.68-1.25-4.83-4.23-4.11-7.31,0,0,1.26,1.67,1.26,1.67-2.58-.03-5.59.25-7.97,1.08,0,0,.32-.18.32-.18-3.75,2.42-8.92.75-12.03-1.94-2.45-2.53-3.16-6.9-6.33-8.57-1.25-.67-2.61-.41-4.13-.88-.92-.25-1.94-.96-2.44-1.87-.94-1.54-.73-3.15-1.16-4.63-.6-2.04-2.35-2.58-4.15-4-1.34-.99-2.47-2.49-3.01-4.1-1.55-4.66.15-9.54,1.94-13.79,1.5-3.74,3.29-8.28,1.64-12.06,0,0,1.17.66,1.17.66-2.25.34-4.47-.96-5.8-2.64-3.87-4.33-1.9-11.14-6.08-15.1-1.22-1.2-2.77-2.21-4.23-3.5-4.54-3.72-4.92-10.45-6.42-15.68,0,0-5.24-21.56-5.24-21.56-.87-3.45-1.6-7.1-3.88-9.85-2.42-2.99-6.48-3.01-9.24-5.81-4.2-4.42-2.46-10.96-3.98-16.29-2.19-8.71-9.55-15.96-18.41-17.72-7.2-1.48-14.6-.03-21.84.82-5.52.56-11.4,1.27-16.79-.51-1.86-.71-3.77-2.18-3.91-4.37,0,0,.24.42.24.42-1.08-.82-2.43-.49-3.51.24-3.13,1.9-5.2,5.79-9.05,6.56-.86.11-1.77-.16-2.44-.66l.39.08c-8.04,1.53-16.51.67-24.06-2.44,0,0,.6-.34.6-.34,0,0-.56,3.63-.56,3.63,0,0-.77.19-.77.19-1.63-2.3-3.97-4.02-6.55-5.17-12.65-5.73-31.91.73-39.25-14.12-1.72-3.6-3.74-9.05-8.68-7-2.01.71-3.85,2.3-6.13,2.25-2.4-.03-3.72-2.65-4.24-4.63-.46-1.36-.89-2.76-1.81-3.83-1.9-2.18-4.97-2.85-7.37-4.36-6.19-3.48-1.37-11.45-8.75-13.88-1.96-.84-4.29-1.42-5.45-3.39-1.09-1.95-.46-4.32-.85-6.41-.95-5.7-6.17-10.45-12-10.65,5.83.17,11.11,4.89,12.11,10.63.27,1.44.1,2.9.26,4.32.49,5.22,7.02,4.23,9.58,7.78,1.72,2.5,1.27,5.68,2.43,8.28,1.91,4.27,7.43,4.14,10.32,7.45,2.55,2.95,2.03,10.07,7.83,7.86,1.32-.52,2.54-1.32,3.92-1.85,5.18-2.21,7.6,3.43,9.32,7.19,2.37,5.43,7.9,8.26,13.45,9.43,10.8,2.46,24.95-.39,32.57,9.6,0,0-.77.19-.77.19,0,0,.54-3.63.54-3.63s.6-.34.6-.34c7.41,3,15.7,3.79,23.54,2.25,0,0,.39.08.39.08.53.37,1.13.54,1.74.46,4.36-1.05,6.29-6.51,10.86-7.35.87-.11,1.8.17,2.48.67,0,0,.24.42.24.42.09,1.6,1.6,2.75,3.2,3.36,8.89,2.54,18.22-.4,27.25-1.02,11.83-1.42,23.17,2.86,28.83,13.79,1.79,3.34,2.72,7.2,2.9,10.95.25,3.4.33,7.38,2.81,9.88,1.81,1.85,4.84,2.41,7.11,3.88,4.27,2.73,5.45,8,6.59,12.53,0,0,5.37,21.53,5.37,21.53.89,3.17,1.67,7.61,2.91,10.53,1.63,4.55,6.84,5.88,9.2,10.02,1.44,2.52,1.73,5.62,2.33,8.27.48,2.82,2.74,6.73,5.9,6.36,0,0,1.17.66,1.17.66.67,1.54.91,3.23.85,4.85-.25,7.26-6.45,13.91-4.22,21.09,1.07,3.73,6.34,4.18,7.27,8.25.33,1.37.38,2.92.92,4.01.67,1,1.76.86,3.02,1.04.79.09,1.75.3,2.55.72,3.4,1.79,4.61,5.38,6.44,8.32,1.81,2.35,6.61,3.88,9.17,2.33,2.33-1.07,4.67-1.2,7.09-1.44.75-.05,1.5-.08,2.31-.05,0,0,1.26,1.67,1.26,1.67-.42,2.46,2.15,4.45,4.62,4.81,2.39.44,6.78.54,9.35.73,2.35.23,10.12.38,12.23.89,1.77.28,2.8,1.91,4.24,2.65.55.25,1.22.42,1.96.57,6.25,1.15,12.57,2.37,18.82,3.44,9.32,1.56,18.76,2.6,28.05.9,3.75-.64,7.98-2.14,12.15-1.98,4.47.36,6.4,1.47,9.88-2.05,1.76-1.62,3.92-3.88,6.62-4.45,1.03-.25,2.08-.2,2.89-.14,1.32.07,2.35.34,3.26-.42,1.62-1.83,1.91-5.86,3.31-8.21,2.97-6.18,8.31-11.14,14.77-13.59,0,0-.94,2.65-.94,2.65-2.87-4.72-2.52-10.65-.07-15.41.03-.29.06-.13-.07-.42-2.26-2.71-1.65-6.58,1.07-8.86,1.59-1.39,3.83-2.11,5.66-2.65,0,0-1.25,2.52-1.25,2.52-1.09-2.94-.8-6.19.57-8.91.69-1.35,1.7-2.62,2.89-3.55,1.08-.84,2.05-1.55,2.32-2.05.13-.25.15-.29.13-.56-1.07-3.43.87-6.57,4.02-8.16,1.6-.87,3.66-1.42,4.95-2.3,4.42-3.49,4.28-12.4,12.43-11.91,1.45.02,2.27.09,3.08-1.18.95-1.64,1.09-4.14.98-6.15,0,0,3.9-1.21,3.9-1.21.23.27.37.26.82.27.72-.02,1.76-.44,2.44-.95.14-.11.27-.21.46-.38,0,0,1.11-1.02,1.11-1.02.79-.72,1.64-1.53,2.81-2.23,1.12-.71,2.76-1.2,4.31-1.03,1.52.18,2.61.71,3.48.99,1.58.56,3.3.59,5.19.32,4.95-.73,10.3-3.12,15.57-1.59,7,1.96,14.51,1.3,21.69.59,3.21-.31,6.06-1.1,9.27-1.58,2.29-.29,4.56.02,6.74.22,9.68.66,15.6,2.07,19.24,12.24,0,0-1.09-1.33-1.09-1.33,3.96,2.5,7.45,4.85,10.03,9.05,2.32,4.41,2.41,10,5.38,13.94,1.87,2.33,4.83,4.06,6.5,6.74,5.07,7.48,3.13,17.29,3.14,25.51-.12,11.54,5.32,23,14.27,30.21,0,0,.7.86.7.86.73,1.43,1.01,2.71,1.25,3.95.6,3.6.56,7.05.32,10.66,0,0-.52-1.88-.52-1.88,2.9,3.64,6.59,8.34,10.74,10.1,5.12,1.99,10.39,4.39,15.31,6.52,0,0,1.32,1.21,1.32,1.21,2.18,3.99,3.86,7.9,5.13,12.25,3.54,12.06-.36,19.2-12.92,22.09-4.43,1.04-8.66,1.49-13.21,1.56,0,0,2.94-2.19,2.94-2.19-.22.8-.36,2.02-.26,2.54.03.29.14.26-.14-.05-.07-.06.04.03.06.05,0,0,.13.11.13.11,0,0,.3.23.3.23,2.44,1.72,4.96,3.45,5.47,6.93.41,7.73-4.69,15.04-11.11,18.85-1.25.64-3.49,1.71-4.15,2.4-1.18,1.63-1.45,4.29-2.95,6.54-1.8,2.7-4.03,4.28-6.43,6.09-2.25,1.59-4.48,2.96-6.93,4.28,0,0,1.71-3.28,1.71-3.28.48,3.17,1.27,6.56,2.39,9.47.71,1.84,1.5,3.32,2.71,4.49,0,0,.92.94.92.94,0,0,1.85,1.89,1.85,1.89,0,0,14.78,15.11,14.78,15.11,0,0-2.38-1.02-2.38-1.02,4.36.28,9.82.84,11.02,6.01.11.59.15,1.16.14,1.65,0,.98-.12,1.74-.18,2.34-.07.59-.07,1.02-.04,1.04.04.03-.14-.33-.26-.39-.07-.03.36.19,1.17.58.37.18,1.02.57,1.47.96,1.88,1.52,2.97,4.22,3.44,6.09.76,3.05.98,5.77.95,8.89,0,0-.23-1.36-.23-1.36.71,1.77,1.6,3.67,2.51,5.45,2.6,4.69,5.48,10.24,10.29,12.51,1.84.66,2.8,2.69,2.13,4.54-.67,1.87-2.77,2.82-4.62,2.1h0Z"/>
    </g>
    <path class="cls-1" d="m233.68,160.3c-3.36-.7-7.11.66-9.48,3.21-1.4,1.38-1.82,3.07-2.72,4.8-.57,1.12-2.11,1.66-3.23,1.6-.86.02-1.48.2-2.1.71-1.89,1.67-2.65,5.2-4.88,7.02-2.39,2.07-5.64,1.56-8.36,2.66-1.55.66-2.91,2.08-2.56,3.45l-.5.93c-6.91,2.42-14.17,4.16-21.58,4.16-5.41,0-10.93-.94-15.81,1.64-1.54.81-2.89,1.96-3.77,3.43l-.98-.21c-.17-1.63-1.67-2.91-3.31-3.38-5.7-1.45-9.95,4.6-15.54,4.85-3.99.26-7.03-2.72-10.56-3.82-4.3-1.43-10.09,1.09-13.46-2.84-.6-.77-.98-1.65-1.63-2.21-1.47-1.18-3.51.23-5.09.64-3.43,1.2-7.55,2.73-10.92.55-.78-.48-1.6-1.05-2.48-1.05-.43,0-.8.33-.91.75-.13.42-.07.91-.2,1.38-.38,1.94-2.28,3.1-4.04,3.61-3.61,1.1-7.62-.55-11.03,1.38,3.36-1.96,7.43-.38,10.99-1.51,1.7-.51,3.54-1.66,3.89-3.52.12-.44.05-.91.19-1.4.12-.48.58-.92,1.1-.92,1.02,0,1.84.59,2.63,1.06,4.83,2.94,9.9-1.23,14.75-1.87.51.02,1.03.22,1.42.55.78.67,1.16,1.57,1.73,2.26,3.39,3.69,8.94,1.07,13.26,2.51,6.13,2.24,8.71,5.86,15.42,1.9,2.43-1.33,4.93-3.06,7.8-3.45,2.94-.47,6.61,1.18,7.06,4.41,0,0-.98-.21-.98-.21,4.28-6.93,13.55-5.93,20.49-5.85,7.19-.08,14.28-1.86,21.05-4.33l-.5.93c-.59-2.44,1.43-4.43,3.41-5.32,2.5-1.19,5.75-.67,7.9-2.49,2.51-2.24,2.82-6.7,6.35-7.99.93-.37,2-.19,2.77-.46,1-.57,1.1-2.13,1.7-3.13,2.4-4.67,7.87-7.51,13.14-6.52,1.32.29,1.05,2.32-.41,2.09h0Z"/>
    <path class="cls-1" d="m291.15,200.27c-3.29-2.97-3.78-8.21-1.16-11.74,1.31-1.69,2.9-2.67,3.95-3.89.82-.94,1.14-1.66.91-2.82-1.24-5.98,6.69-3.2,3.91-16.35-1.16-5.2-3.25-11.53.31-16.3.59-.76,1.24-1.37,1.54-2.09.3-.71.25-1.53-.03-2.33-.55-1.61-1.75-3.13-2.23-4.98-1-3.67,0-7.57,1.95-10.65,1.98-3.12,4.83-5.51,7.79-7.6-2.89,2.19-5.65,4.67-7.49,7.78-1.82,3.07-2.62,6.88-1.58,10.26.48,1.69,1.68,3.07,2.38,4.88.36.89.49,2,.1,2.99-.39.99-1.1,1.67-1.59,2.36-3.13,4.65-.82,10.35.39,15.31,1.15,4.5,1.49,10.27-2.41,13.64-.66.62-1.08,1.17-1.08,1.59,1.33,5.21-2.31,6.42-4.84,9.64-1.74,2.4-1.22,6.33,1.01,8.12,1.47,1.22-.4,3.44-1.85,2.15h0Z"/>
    <path class="cls-1" d="m319.93,296.38c-1.79-2.29-5.43-2.98-8.34-3.65-3.54-.83-7.62-2.35-9.1-6.04-.51-1.3-.54-2.49-.86-3.3-.35-.81-.59-.99-1.68-1.07-3.78.06-7.53-2.43-8.79-6.04-.39-1.19-.62-2.18-1.18-2.46-.51-.37-1.53-.14-2.62.18-2.73,1.02-4.99-.15-6.84-2.05-3.93-3.87-9.56-5.82-15.06-5.13-2.19.26-4.47.91-6.87.62-5.11-.54-6.54-6.32-9.26-9.69-4.85-6.01-12.89-.8-19.22-2.32,6.39,1.32,14.56-4.11,19.63,1.98,2.25,2.57,3.28,6,6.01,8.05,2.86,2.07,6.28.8,9.57.31,4.62-.7,9.49.36,13.44,2.92,2.69,1.53,4.7,5.24,8.14,3.7,1.22-.36,2.66-.85,3.97-.09,1.31.71,1.61,2.21,2.04,3.35,1.12,2.87,4.07,4.71,7.15,4.57.6.02,1.39.08,2.15.54.75.44,1.23,1.19,1.48,1.83.51,1.3.56,2.45.94,3.25.69,1.68,2.47,2.83,4.42,3.55,4.39,1.55,9.8,1.31,13.08,5.22,1.19,1.45-.97,3.28-2.2,1.79h0Z"/>
    <path class="cls-1" d="m494.21,290.12c-.4,3.27.57,6.51,1.74,9.6,5.79,13.28,6.53,19.09-4.74,29.6-2.71,2.39-5.58,4.58-8.91,6.21-1.66.81-3.32,1.37-4.8,2.13-3.14,1.62-5.51,4.86-9.22,5.45-3.34.82-6.84.55-9.48,2.85-1.18.99-1.87,2.34-1.61,3.63,0,0-1.53,1.12-1.53,1.12-6.14-3.02-12.11,2.32-17.72,4.52-2.07.9-4.62,1.28-6.81,1.24-1.07.03-2.11.12-2.85.5-.75.39-1.03.97-1.29,2.1-.43,2.83-3.27,3.77-5.59,4.34-3.99,1.18-7.39,4.33-8.88,8.23l-.47.47c-5.98,2.22-12.53,2.83-18.8,1.72-2.09-.35-4.1-1.02-5.86-.59-1.77.37-2.74,2.24-4.11,3.91-.68.84-1.66,1.67-2.85,1.97-1.17.29-2.26.16-3.2.25-1.89.19-3.62,1.23-5.1,2.6-1.51,1.35-2.85,2.93-4.41,4.38-6.22,6.12-11.17,2.38-17.52-.85-1.84-.87-3.8-1.29-5.83-1.26-7.91.1-17.12,5.88-24.37.19,0,0,.51-.03.51-.03-5.37,5.32-13.57,4.24-20.45,4.34-3.51.06-7.09.28-10.35,1.59-3.24,1.32-6.13,3.51-9.53,4.68-6.7,2.46-14.31,2.29-20.84-.54-5.96-2.73-13.74-7.9-19.62-2.4,5.85-5.56,13.75-.45,19.7,2.23,6.51,2.76,14.06,2.85,20.64.37,3.33-1.18,6.17-3.38,9.48-4.76,3.34-1.38,6.98-1.62,10.52-1.72,6.76-.19,14.7.89,19.93-4.3,0,0,.51-.03.51-.03,9.16,6.72,20.38-4.16,30.14.71,3.65,1.55,7.18,4.52,11.28,3.85,6.26-1.38,8.51-9.59,15.21-10.34,2.13-.09,3.82.05,5.14-1.8,2.22-3.17,3.93-5.26,8.17-4.46,6.99,1.59,14.35,1.39,21.06-1.24,0,0-.47.47-.47.47,1.65-4.4,5.38-7.93,9.89-9.32,1.5-.5,2.98-.68,3.88-1.87.55-.86.5-2.01,1.1-3.05.36-.63.93-1.16,1.55-1.48,2.29-1.12,4.57-.52,6.8-.98,7.44-1.6,14.36-9.59,22.45-5.48,0,0-1.53,1.12-1.53,1.12-.23-1.08-.06-2.25.39-3.22,2.14-4.68,7.93-4.99,12.22-5.84,3.52-.64,5.56-3.85,8.68-5.35,1.65-.86,3.34-1.45,4.83-2.19,5.83-3.09,11.37-7.99,14.68-13.71,4.63-8.14-2.6-16.13-4.22-24.21-.38-1.84-.54-3.77-.33-5.72.08-.78.78-1.34,1.56-1.26.8.08,1.37.83,1.25,1.62h0Z"/>
    <path class="cls-1" d="m496.58,324.49c-5.75,3.17-5.22,11.38-5.86,17.2-.96,9.41-4.85,11.87-12.92,15.35-9.1,4.39-17.8,9.65-25.91,15.68-3.63,2.95-8.68,5.73-9.58,10.67-.25,1.49.38,3.17.05,5.11-.15,1.02-1.03,2.04-2.08,2.22-1.02.22-1.86,0-2.57.19-1.51.19-2.71,1.32-3.65,2.64-3.46,5.27-3.98,8.7-11.04,9.84-1.58.47-3.09,1.19-4.43,2.17-2.7,1.92-4.76,4.76-5.7,7.95-.49,1.61-.7,3.52-2.11,4.68-.72.58-1.57.8-2.36,1.1-7.03,2.48-14.71,5.79-22.22,3.5,7.54,2.15,15.1-1.28,22.08-3.88,3.12-.85,3.44-2.74,4.1-5.55,1.37-5.02,5.43-9.21,10.41-10.74,1.66-.52,3.37-.69,4.67-1.61,1.33-.86,2.3-2.23,3.15-3.66,1.73-2.81,3.18-6.93,6.92-7.59.95-.22,1.84-.03,2.48-.22,2.33-.77.55-4.42.99-6.33.46-3.69,3.28-6.35,5.94-8.59,9.22-7.59,19.27-14.13,29.93-19.51,3.02-1.6,6.32-2.73,8.32-4.98,3.18-3.5,3.12-9.08,3.38-13.74.3-5.34,1.54-11.64,6.72-14.44,1.64-.83,3.02,1.58,1.3,2.52h0Z"/>
    <path class="cls-1" d="m440.43,331.26c-3.64,2.3-8.27.95-11.21-1.64-2.45-2.01-4.82-5.76-6.71-8.27-2.02-2.78-4.04-5.51-6.61-7.51-2.71-2.23-6.43-2.98-8.67-6.13-2.05-3.11-.59-6.97-2.34-10.2-1.95-4.61-5.94-8.77-7.07-13.94-.44-1.82-.34-3.62-.51-5.25-.64-7.71-9.8-7.93-14.93-11.87-3.07-2.03-4.29-5.71-5.48-8.97,0,0-3.66-9.7-3.66-9.7-1.07-2.74-2.46-6.99-3.95-9.5-1.71-2.94-4.6-4.99-6.85-7.67-6.7-7.23,3.97-13.06-5.36-18.35-2.84-1.72-6.76-2.88-7.77-6.42,2.36,6.81,14.5,4.92,11.78,14.97-2.94,8.77,4.87,10.9,8.81,17.1,1.58,2.56,3.01,6.74,4.17,9.55,1.4,3.37,4.3,11.21,5.81,14.36,2.47,4.76,7.9,5.75,12.48,8.02,9.77,4.64,4.4,10.64,8.99,17.91,2.49,4.37,6.45,8.87,6.66,14.34.08,1.8.11,3.3.97,4.43,1.95,2.57,5.71,3.38,8.31,5.5,5.64,4.21,8.64,11.11,13.62,15.58,2.15,1.86,5.53,2.87,7.94,1.31,1.56-1.03,3.14,1.31,1.56,2.37h0Z"/>
    <path class="cls-1" d="m530.6,233.42c-3.51,3.86-9.41,3.03-13.87,2,0,0-.86-.66-.86-.66-2.7-5.27-8.11-8.63-12.67-12.32-4.51-4.06-10.65-5.17-15.44-.97,0,0-1,.12-1,.12-3.44-2.06-4.38-6.1-6.85-8.78-1.16-1.26-2.68-1.93-4.4-1.94-8.99.84-18.09,2.72-27.08,3.84,0,0-.39-.44-.39-.44.62-2.49-2.17-4.21-4.16-5.15-1.12-.58-2.31-1.2-3.18-2.22-.89-1-1.1-2.4-1.16-3.68.13-5.71-4.01-4.65-8.12-4.43-1.24.06-2.74-.31-3.09-1.68,1.8,4.62,11.37-3.13,11.56,6.08.09,1.26.3,2.52,1.14,3.42,2.34,2.52,8.54,3.15,7.68,7.84,0,0-.39-.44-.39-.44,7.23-1.21,14.45-2.44,21.65-3.72,7.63-1.69,10.33-.79,14.22,6.12.95,1.52,2.01,2.91,3.41,3.7l-1,.12c3.62-3.45,9.41-4.32,13.87-2.06,4.16,2.34,7.58,5.27,11.38,8.17,2.41,1.99,4.72,4.33,6.28,7.27l-.86-.66c3.71.72,8.53,1.55,11.22-1.41,1.24-1.43,3.41.44,2.12,1.88h0Z"/>
    <path class="cls-1" d="m515.63,253.18c-4.95,4.61-6.8,12.27-4.95,18.82,1.6,7.38,10.56,11.4,9.99,19.54-.16,1.82-1.4,3.69-1.85,5.3-.36,1.4,0,2.97.68,4.58.65,1.61,1.55,3.26,2.12,5.18,1.54,5.38-.18,11.42-.67,16.82,0,0-1.4,10.88-1.4,10.88-1.1,9-2.75,18.06.06,26.71,1.13,3.5,3.18,6.73,3.58,10.57.92,6.51-5.86,9.46-9.32,13.52-2.94,3.54,1.08,6.02.96,9.72-.11,4.04-2.87,6.97-4.44,10.34-3.22,6.49-4.55,14.32-10.02,19.62-2.7,2.69-6.4,4.75-10.34,4.46-3.73-.28-6.86-2.47-10.53-1.34-3.31.85-6.24,3.36-7.47,6.55-.71,1.69-.58,3.4-.8,5.24-.34,4.58-5.51,5.07-9.02,5.98-5.27,1.39-10.41,3.27-15.33,5.61-2.24,1.2-5.2,2.02-5.64,4.74-.2,2.68,1.22,5.96-1.22,8.14-1.48,1.4-3.47,1.92-5.36,2.02-5.42.15-10.64-4.07-15.84-1.05-4.88,2.57-7.61,7.88-12.34,10.71-3.08,2.06-7.61,2.87-10.61.22-1.47-1.18-2.58-2.67-3.97-3.78-4.34-3.5-10.79-1.97-14.77,1.43-2.79,2.31-4.91,5.32-6.9,8.37,0,0-.4-.04-.4-.04-1.14-2.77-4.91-2.24-7.08-1.07-3.47,2.06-5.85,6.81-10.45,6.68-4.12-.03-8.28-3.34-12.2-.86-2.32,1.53-4.29,3.66-6.79,4.97-7.38,4.26-16.08,5.12-24.4,5.93,8.31-.86,16.98-1.78,24.31-6.08,2.51-1.35,4.4-3.45,6.76-5.02,3.93-2.56,8.22.71,12.32.74,5.97.03,8.16-8.26,14.41-7.73,1.47.03,3.01.83,3.55,2.27,0,0-.4-.04-.4-.04,3.71-6.06,9.35-12.8,17.25-12.09,1.87.16,3.73.84,5.2,2.04,2.66,2.31,4.92,5.75,8.85,5.25,7.72-.89,10.9-9.27,17.27-12.66,1.67-.89,3.62-1.35,5.52-1.2,3.67.21,7.05,2.21,10.67,2.05,2.48-.11,5.34-1.23,5.79-3.88.3-2.64-1.31-6.01,1.14-8.16,1.41-1.36,3.16-2.04,4.84-2.9,3.31-1.6,6.73-3,10.21-4.18,1.74-.59,3.5-1.13,5.28-1.61,3.07-.98,7.67-.96,8.03-4.96.17-1.77.1-3.83.83-5.55,1.39-3.65,4.61-6.44,8.37-7.45,3.68-1.26,7.48.91,10.97,1.22,7.31.23,12.3-6.81,14.64-13.11,1.89-5.02,3.83-10.48,6.76-15.07,1.24-2.29,2.14-4.66,1-7.03-1.62-2.81-2.39-5.78-.13-8.57,5.5-6.26,11.86-7.28,7.38-17.16-1.49-3.32-2.94-6.97-3.41-10.65-1.06-7.5.13-14.91.97-22.13,0,0,1.33-10.89,1.33-10.89.41-4.94,2.02-11,.65-15.84-.75-2.47-2.47-5.05-2.97-7.81-.64-2.44.73-5.03,1.59-7.15,1.46-5.74-4.74-9.73-7.4-14.27-4.3-6.59-4.25-15.52-.43-22.31.98-1.7,2.19-3.27,3.61-4.65.56-.54,1.46-.53,2,.03.56.57.53,1.5-.07,2.04h0Z"/>
    <path class="cls-1" d="m644.64,294.42c.63-3.31,1.85-10.13,2.51-13.3,1.25-6.26,4.23-7.54,9.38-10.05,1.14-.65,2.06-1.51,2.56-2.7,1.57-4.19-.66-8.42.12-13.08.35-3.32,3.31-5.55,5.51-7.56,1.03-.98,1.8-2.07,1.72-3.23-.22-2.82-3.78-4.46-4.71-7.18-.72-1.79.56-3.88,2.19-4.52,1.48-.71,2.94-.98,3.96-1.81,3.27-2.55,3.31-8.36.15-10.98-2.31-1.84-5.64-1.62-8.27-3.05-3.32-1.62-2.9-5.43-2.37-8.41.52-4.35.37-9.09-2.15-12.82-1.62-2.59-4.69-3.64-6.65-5.92-2.93-3.5-2.73-9.21.52-12.42-3.15,3.23-3.27,8.87-.32,12.25.96,1.12,2.26,1.9,3.5,2.74,5.48,3.32,6.5,10.39,5.81,16.26-.39,2.74-.89,6.18,2.08,7.55,2.66,1.34,6,1.04,8.52,3,3.83,3.11,3.83,9.73,0,12.86-1.34,1.09-2.94,1.39-4.13,2.03-3.22,1.65-.64,4.19,1.19,6,1.83,1.7,3.24,4.59,1.74,6.97-1.17,2.04-3.3,3.4-4.72,5.04-4.19,4.82.74,11.48-1.65,17.16-.31.8-.83,1.58-1.41,2.22-2.53,2.76-6.91,3.07-8.74,6.34-1.28,2.25-1.53,5.29-2.07,8.24l-1.47,8.87c-.33,1.8-3.09,1.42-2.79-.49h0Z"/>
    <path class="cls-1" d="m667.32,407.52c2.55.25,4.68-1.73,6.47-3.52,2.23-2.36,4.48-4.64,7.8-5.46,1.74-.47,3.9-.03,5.3,1.12,1.37,1.11,2.19,2.24,3.16,2.59,5.08,1.41,7.77-4.72,11.26-7.38.51-.43,1.37-1.05,1.93-1.38,5-3.22,11.24-4.21,15.73-7.88,7.34-5.87-1.51-15.87,3.69-22.79,1.21-1.64,3.24-3.16,3.61-5.06.57-2.7-1.36-5.25-2.46-7.74-1.49-2.75-1.75-6.5-.17-9.31,2.06-4.04,5.85-6.98,8.2-10.63,3.85-5.93,2.74-14.62-2.31-19.6-1.56-1.67-3.97-2.53-4.91-4.78-1.03-2.35.17-5.02,1.6-6.82,2.51-3.41,7.48-5.38,8.07-9.9.14-7.06-13.66-6.58-4.26-18.86,0,0,10.67-14.28,10.67-14.28.92-1.18,1.94-2.34,3.25-3.18,4.91-3.16,12.83-.03,15.8-6.22.63-1.24.76-2.84-.24-3.92-.92-1.08-2.8-1.63-2.9-3.35-.19-4.35,5.49-4.88,6.99-8.22.85-2.1-.48-4.38-2.12-5.71-2.33-1.87-5.45-2.26-8.07-3.61-4.02-2-6.48-6.69-5.91-11.13-.35,2.96.64,6,2.52,8.28,2.82,3.8,8.03,3.6,11.6,6.29,1.72,1.35,3.14,3.77,2.25,5.98-1.37,3.37-6.99,3.92-6.86,8.07.15,1.63,1.91,1.97,2.84,3.1.53.58.86,1.37.87,2.16,0,2.36-1.69,4.39-3.61,5.59-3.9,2.24-9,.76-12.8,3.24-1.2.78-2.16,1.89-3.05,3.05l-10.51,14.37c-8.88,11.78,4.59,10.04,4.65,18.41-.49,4.92-5.53,7.05-8.19,10.58-1.68,2.08-2.6,5.19-.21,7.07,8.14,4.93,11.31,16.02,6.19,24.24-2.87,4.83-8.9,8.52-8.87,14.41.21,4.51,4.8,7.99,3.81,12.83-.46,2.41-2.53,3.99-3.88,5.82-4.5,6.89,4.71,15.73-3.82,23.29-4.6,3.94-11,5.02-15.9,8.23,0,0-.87.58-.87.58,0,0-.8.65-.8.65-2.91,2.4-4.69,6.15-8.46,7.66-1.55.66-3.48.95-5.3.24-1.6-.59-2.62-2.01-3.79-2.9-3.57-2.37-7.13,1.67-9.55,4.19-2.24,2.32-5.13,4.81-8.76,4.42-1.83-.29-1.56-2.97.33-2.82h0Z"/>
  </g>
  <g id="_レイヤー_3" data-name="レイヤー 3">
    <circle id="assemblage" class="cls-6" cx="353.94" cy="317.3" r="5.67"/>
    <circle id="aizu" class="cls-4" cx="222.1" cy="254.59" r="3.54"/>
    <circle id="syneco" class="cls-4" cx="235.79" cy="396.61" r="3.54"/>
    <circle id="minamata" class="cls-4" cx="348.76" cy="200.64" r="3.54"/>
    <circle id="takeno" class="cls-4" cx="426.46" cy="192.37" r="3.54"/>
    <circle id="watershed" class="cls-5" cx="747.57" cy="204.18" r="3.54"/>
    <circle id="designothernames" class="cls-5" cx="653.11" cy="173.83" r="3.54"/>
    <circle id="gardener" class="cls-5" cx="72.59" cy="196.26" r="3.54"/>
    <circle id="posthuman" class="cls-5" cx="312.72" cy="118.72" r="3.54"/>
    <circle class="cls-5" cx="380.54" cy="419.98" r="3.54"/>
    <circle id="toolview" class="cls-5" cx="302.2" cy="497.87" r="3.54"/>
    <circle id="nagomi" class="cls-6" cx="66.92" cy="87.22" r="5.67"/>
    <circle id="drift" class="cls-6" cx="571.87" cy="227.79" r="5.67"/>
    <circle id="weaving" class="cls-6" cx="654.15" cy="315.4" r="5.67"/>
    <text class="cls-3" transform="translate(30.77 72.67)"><tspan x="0" y="0">源流：なごみの灯り</tspan></text>
    <text class="cls-3" transform="translate(36.44 211.67)"><tspan x="0" y="0">「庭師」としての</tspan><tspan x="14.88" y="11.34">デザイナー</tspan></text>
    <text class="cls-3" transform="translate(275.65 98.25)"><tspan x="0" y="0">ポストヒューマニズム</tspan><tspan x="25.51" y="11.34">デザイン</tspan></text>
    <text class="cls-3" transform="translate(176.96 271.54)"><tspan x="0" y="0">フィールドワーク</tspan><tspan class="cls-2" x="20.43" y="11.34">@</tspan><tspan x="30.6" y="11.34">会津</tspan></text>
    <text class="cls-3" transform="translate(315.3 177.77)"><tspan x="0" y="0">フィールドワーク</tspan><tspan class="cls-2" x="20.43" y="11.34">@</tspan><tspan x="30.6" y="11.34">水俣</tspan></text>
    <text class="cls-3" transform="translate(402.94 170.51)"><tspan x="0" y="0">フィールドワーク</tspan><tspan class="cls-2" x="20.43" y="11.34">@</tspan><tspan x="30.6" y="11.34">竹野</tspan></text>
    <text class="cls-3" transform="translate(633.51 152.65)"><tspan x="0" y="0">Design with</tspan><tspan x="-2.9" y="11.34">Other Names</tspan></text>
    <text class="cls-3" transform="translate(323.96 336.86)"><tspan x="0" y="0">人とモノの</tspan><tspan x="-17.01" y="11.34">アッサンブラージュ</tspan></text>
    <text class="cls-3" transform="translate(216.87 413.56)"><tspan x="0" y="0">協生農法</tspan><tspan x="-12.76" y="11.34">シネコポータル</tspan></text>
    <text class="cls-3" transform="translate(343.76 435.55)"><tspan x="0" y="0">動いている庭</tspan></text>
    <text class="cls-3" transform="translate(277.6 513.93)"><tspan x="0" y="0">デザインの</tspan><tspan x="8.5" y="11.34">道具観</tspan></text>
    <text class="cls-3" transform="translate(531.47 201.31)"><tspan x="0" y="0">「ドリフト」という</tspan><tspan x="-2.13" y="11.34">デザインプラクティス</tspan></text>
    <text class="cls-3" transform="translate(583.76 328.55)"><tspan x="0" y="0">建築家と庭師の</tspan><tspan x="-11.11" y="11.34">Ontological Weaving</tspan></text>
    <text class="cls-3" transform="translate(727.01 195.44)"><tspan x="0" y="0">流域思考</tspan></text>
  </g>
</svg>